<svg id="a3720fbc-2127-4cb2-9a41-16ce3dde1e0c" data-name="Layer 1" xmlns="http://www.w3.org/2000/svg" viewBox="0 0 58.226 59.07"><path d="M24.076,32.1a7.984,7.984,0,0,1,0-11.292q.267-.265.558-.507a7.991,7.991,0,0,1,10.672.448A7.983,7.983,0,0,1,46,32.581L35.846,42.733a.8.8,0,0,1-1.138,0h0Zm-.729-5.646a6.354,6.354,0,0,0,1.867,4.508L35.276,41.026l9.584-9.583a6.374,6.374,0,1,0-9.036-8.993h0c-.018.018-.037.034-.056.051a.806.806,0,0,1-1.133-.107,5.912,5.912,0,0,0-.407-.445,6.372,6.372,0,0,0-8.569-.406q-.231.192-.444.407a6.353,6.353,0,0,0-1.867,4.507ZM34.4,6.27a.8.8,0,0,1,1.61,0v4.652a.8.8,0,0,1-1.61,0ZM63.311,36.338a.8.8,0,1,1,0,1.6H58.17a.8.8,0,0,1,0-1.6h5.142ZM60.694,20.9a.8.8,0,1,1,.811,1.383l-3.9,2.287a.8.8,0,0,1-.811-1.383ZM49.429,9.87a.8.8,0,1,1,1.4.793l-2.179,3.848a.8.8,0,0,1-1.4-.794ZM6.692,37.207a.8.8,0,0,1,0-1.61h4.9a.8.8,0,0,1,0,1.61ZM9,21.918a.8.8,0,0,1-.286-1.1h0a.8.8,0,0,1,1.1-.287h0l4.124,2.419a.8.8,0,0,1-.81,1.383h0ZM19.613,10.541a.8.8,0,1,1,1.4-.793L23,13.261a.8.8,0,1,1-1.4.793Zm-6.223,40.2,2.729-1.238a1.73,1.73,0,0,1,2.157.655l.04-.032c.3-.237.611-.49.938-.76,4.748-3.964,6.838-3.754,14.481-2.986l.39.039a2.906,2.906,0,0,1,2.514,1.5,2.247,2.247,0,0,1,.2,1.238l0,.017,2.546-1.245a4.954,4.954,0,0,1,2.965-.448,3.923,3.923,0,0,1,1.967.887l.9-.439a4.99,4.99,0,0,1,2.71-.483,4.3,4.3,0,0,1,1.658.515,2.793,2.793,0,0,1,1.084,1.044,4.645,4.645,0,0,1,3.272.225,2.478,2.478,0,0,1,.936.8,1.8,1.8,0,0,1,.308,1.243,2.838,2.838,0,0,1-1.566,1.978l-7.23,4.3c-.367.218-2.753,1.1-5.157,1.908-1.853.622-3.745,1.213-4.767,1.44a.723.723,0,0,1-.138.017l-.8.036c-.841.036-1.849.077-3.888.161l-8.81.358a1.728,1.728,0,0,1-.133.755,1.821,1.821,0,0,1-.927.947L19.39,64.262c-1.036.471-2.171.42-2.686-.853L12.6,53.35a1.859,1.859,0,0,1-.132-1.657A1.82,1.82,0,0,1,13.39,50.745Zm5.54.943,3.364,8.236a3.909,3.909,0,0,1,.449-.046c.564-.023,5.066-.2,8.829-.36,1.932-.079,3.683-.151,4.615-.192.97-.224,2.761-.785,4.533-1.38,2.324-.78,4.569-1.6,4.85-1.764l7.23-4.3c.522-.311.759-.583.785-.8a.234.234,0,0,0-.042-.155.911.911,0,0,0-.339-.27,3.266,3.266,0,0,0-2.632.075l-8.463,3.454a10.332,10.332,0,0,1-2.693.158h-.06c-.718-.021-1.432-.06-1.993-.106a9.549,9.549,0,0,1-1.343-.172l-8.863-2.358h0a.8.8,0,0,1,.223-1.577l5.685.135a2.264,2.264,0,0,0,2-.839,1.044,1.044,0,0,0,.18-.457.645.645,0,0,0-.051-.358c-.138-.289-.528-.524-1.226-.594l-.39-.039c-7.115-.714-9.062-.91-13.293,2.621-.349.292-.673.555-.975.792-.125.1-.252.2-.377.3Zm-2.367-.618-2.512,1.14c-.129.058-.128.155-.085.259L18.186,62.8c.083.16.1.2.244.128l2.235-1.014c.727-.33.6-.178.381-.811q-2-4.908-4.009-9.815c-.142-.336-.252-.323-.474-.222Zm18.08.97,1.046.279c.246-.053.482-.113.69-.171a5.411,5.411,0,0,0,.623-.2L42.62,49.2a2.826,2.826,0,0,0-.522-.131,3.362,3.362,0,0,0-2.008.309Zm6.862.659,7.6-3.1a1.587,1.587,0,0,0-.319-.234,2.686,2.686,0,0,0-1.036-.314,3.37,3.37,0,0,0-1.836.332l-6.861,3.351a16.024,16.024,0,0,0,2.3,0,.615.615,0,0,0,.149-.029Z" transform="translate(-5.887 -5.465)" style="fill:#fdfefe;fill-rule:evenodd"/></svg>