<?xml version="1.0" encoding="utf-8"?>
<!-- Generator: Adobe Illustrator 26.0.1, SVG Export Plug-In . SVG Version: 6.00 Build 0)  -->
<svg version="1.1" id="b2be0d60-e452-4500-b211-027213ec5b75"
	 xmlns="http://www.w3.org/2000/svg" xmlns:xlink="http://www.w3.org/1999/xlink" x="0px" y="0px" viewBox="0 0 27.7 31.7"
	 style="enable-background:new 0 0 27.7 31.7;" xml:space="preserve">
<style type="text/css">
	.st0{fill:#FFFFFF;}
</style>
<g>
	<path class="st0" d="M9,11.8c0-5,3.6-9.2,8.5-10.1V0.9c0-0.5-0.4-0.9-0.9-0.9l0,0H0.9C0.4,0,0,0.4,0,0.9v29.9
		c0,0.5,0.4,0.9,0.9,0.9h0h15.7c0.5,0,0.9-0.4,0.9-0.9l0,0v-8.9C12.6,21,9.1,16.8,9,11.8z M7.2,16.8H4.6c-0.5,0-0.9-0.4-0.9-0.9
		c0-0.5,0.4-0.9,0.9-0.9c0,0,0,0,0,0h2.6c0.5,0,0.9,0.4,0.9,0.9C8.1,16.4,7.7,16.8,7.2,16.8C7.2,16.8,7.2,16.8,7.2,16.8z M20.4,10.6
		v-1c0-0.6-0.5-1.1-1.1-1.1S18.2,9,18.2,9.6v1H20.4z"/>
	<path class="st0" d="M19.3,3.4c-4.6,0-8.4,3.8-8.4,8.4s3.8,8.4,8.4,8.4s8.4-3.8,8.4-8.4c0,0,0,0,0,0C27.7,7.1,23.9,3.4,19.3,3.4z
		 M23,15.7c0,0.5-0.4,0.9-0.9,0.9c0,0,0,0,0,0h-5.5c-0.5,0-0.9-0.4-0.9-0.9c0,0,0,0,0,0v-4.2c0-0.4,0.3-0.8,0.7-0.9v-1
		c0-1.6,1.3-3,3-3c1.6,0,3,1.3,3,3c0,0,0,0,0,0v1c0.4,0.1,0.7,0.5,0.7,0.9L23,15.7z"/>
	<path class="st0" d="M17.5,12.5h3.7v2.3h-3.7V12.5z"/>
</g>
</svg>
