<svg id="ac46c52f-68e3-4680-9115-2d24146e4779" data-name="Layer 1" xmlns="http://www.w3.org/2000/svg" viewBox="0 0 51.551 51.551"><path d="M26.774,40.06A4.151,4.151,0,1,0,21.7,46.627v3.339a2.494,2.494,0,1,0,4.988,0v-3.34a4.138,4.138,0,0,0,.089-6.568Zm-1.338,5.405a.83.83,0,0,0-.416.718v3.783a.832.832,0,1,1-1.663,0V46.182a.832.832,0,0,0-.416-.718,2.486,2.486,0,0,1,.635-4.573,2.77,2.77,0,0,1,.615-.071,2.489,2.489,0,0,1,1.956,4.025,2.494,2.494,0,0,1-.716.617Z" transform="translate(-9.225 -9.225)" style="fill:#e33134"/><path d="M59.944,49.135h-.831V46.641a.832.832,0,0,0-.832-.832H57.45V41.652a.859.859,0,0,0-.025-.2L55.762,34.8a.832.832,0,0,0-1.613,0L52.486,41.45a.81.81,0,0,0-.025.2v4.157H50.8V41.652a.832.832,0,0,0-.832-.832h-.831V34.169H47.472V40.82h-.831a.832.832,0,0,0-.832.832v4.157H44.146V41.652a.832.832,0,0,0-.831-.832h-.832V39.505l3.082-3.082a.832.832,0,0,0-.385-1.4L41.854,34.2a.832.832,0,0,0-1.009.6.889.889,0,0,0-.025.2v5.82h-.831a.833.833,0,0,0-.832.832v4.157h-.831V28.348h8.315a4.157,4.157,0,1,0,0-8.314H38.326V13.382a4.162,4.162,0,0,0-4.157-4.157H13.382a4.161,4.161,0,0,0-4.157,4.157v39.91a4.162,4.162,0,0,0,4.157,4.158H35.831v2.494a.832.832,0,0,0,.832.831H58.281a.832.832,0,0,0,.832-.831V57.45h.831a.832.832,0,0,0,.831-.832V49.966A.831.831,0,0,0,59.944,49.135ZM42.483,36.068l.868.217-.868.868Zm12.472,2.363.6,2.393h-1.2Zm-.831,4.052h1.663v3.326H54.124Zm-6.652,0h1.663v3.326H47.472Zm-6.652,0h1.663v3.326H40.82Zm8.315-18.292a2.494,2.494,0,0,1-2.494,2.494H25.022a2.494,2.494,0,0,1,0-4.988H46.641A2.494,2.494,0,0,1,49.135,24.191ZM25.022,28.348h4.344a6.655,6.655,0,1,1,0-8.314H25.022a4.157,4.157,0,0,0,0,8.314Zm6.35-8.314a8.316,8.316,0,1,0,0,8.314h1.882a9.977,9.977,0,1,1,0-8.314Zm4.459,26.607v9.146H13.382a2.5,2.5,0,0,1-2.495-2.495V13.382a2.5,2.5,0,0,1,2.495-2.495H34.169a2.5,2.5,0,0,1,2.494,2.495v6.652h-1.6a11.641,11.641,0,1,0,0,8.314h1.6V45.809A.832.832,0,0,0,35.831,46.641ZM57.45,59.113H37.494V47.472H57.45v1.663H50.8a4.158,4.158,0,0,0,0,8.315H57.45Zm1.663-3.326H50.8a2.495,2.495,0,1,1,0-4.989h8.315Z" transform="translate(-9.225 -9.225)" style="fill:#e33134"/><path d="M49.966,52.464h1.663v1.663H49.966Z" transform="translate(-9.225 -9.225)" style="fill:#e33134"/></svg>