<?xml version="1.0" encoding="utf-8"?>
<!-- Generator: Adobe Illustrator 26.0.1, SVG Export Plug-In . SVG Version: 6.00 Build 0)  -->
<svg version="1.1" id="b96dde3c-bc66-4539-9adf-69b8e87f00f3"
	 xmlns="http://www.w3.org/2000/svg" xmlns:xlink="http://www.w3.org/1999/xlink" x="0px" y="0px" viewBox="0 0 22.1 31.5"
	 style="enable-background:new 0 0 22.1 31.5;" xml:space="preserve">
<style type="text/css">
	.st0{fill:#FFFFFF;}
	.st1{fill-rule:evenodd;clip-rule:evenodd;fill:#FFFFFF;}
</style>
<g>
	<path class="st0" d="M14.5,24.9v3.5h-4.4v-3.5H14.5z M4.1,8.2V6c0-0.9,0.7-1.6,1.6-1.6h2.8c0.9,0,1.6,0.7,1.6,1.6v2.2L4.1,8.2z"/>
	<path class="st1" d="M9.5,0H4.7C2.1,0,0,2.1,0,4.7c0,0,0,0,0,0v22.1c0,2.6,2.1,4.7,4.7,4.7c0,0,0,0,0,0h10.1c1.6,0,2.8-1.3,2.8-2.8
		l0,0v-3.3c1.3,0,2.4-1.1,2.4-2.4l0,0v-0.3c0-2.4-1.9-4.3-4.3-4.3c-0.5,0-1.1,0.1-1.6,0.3h-3.9c-1.7,1.6-4.4,1.5-6-0.3
		c-1.6-1.7-1.5-4.4,0.3-6c1.6-1.5,4.1-1.5,5.7,0l0,0h3.9V4.7C14.2,2.1,12.1,0,9.5,0z M13.1,22.7v0.6H9.8c-0.7,0-1.3,0.6-1.3,1.3
		c0,0,0,0,0,0v4.1c0,0.7,0.6,1.3,1.3,1.3h5c0.7,0,1.3-0.6,1.3-1.3v-4.1c0-0.5-0.3-1-0.8-1.2c-0.2-0.1-0.4-0.1-0.7-0.1v-0.6
		c0-0.6,0.5-1.1,1.1-1.1c0.6,0,1.1,0.5,1.1,1.1V23c0,0.4,0.3,0.8,0.8,0.8c0.4,0,0.8-0.3,0.8-0.8c0,0,0,0,0-0.1v-0.3
		c0-1.5-1.1-2.7-2.6-2.7c-1.5,0-2.7,1.1-2.7,2.6C13.1,22.6,13.1,22.7,13.1,22.7z M3.8,9.8c-0.7,0-1.3-0.6-1.3-1.3V6
		c0-1.7,1.4-3.2,3.2-3.2c0,0,0,0,0,0h2.8c1.7,0,3.2,1.4,3.2,3.2v2.5c0,0.7-0.6,1.3-1.3,1.3H3.8z"/>
	<path class="st0" d="M22.1,15.6c0,0.9-0.7,1.6-1.6,1.6c0,0,0,0,0,0h-9.1c0.2-0.5,0.3-1,0.3-1.6c0-0.5-0.1-1.1-0.3-1.6h9.1
		C21.4,14,22.1,14.7,22.1,15.6z M11.4,17.2L11.4,17.2z M7.4,18.3c1.5,0,2.7-1.2,2.7-2.7c0-1.5-1.2-2.7-2.7-2.7
		c-1.5,0-2.7,1.2-2.7,2.7c0,0,0,0,0,0C4.7,17.1,5.9,18.3,7.4,18.3L7.4,18.3z"/>
</g>
</svg>
