<?xml version="1.0" encoding="utf-8"?>
<!-- Generator: Adobe Illustrator 26.0.1, SVG Export Plug-In . SVG Version: 6.00 Build 0)  -->
<svg version="1.1" id="a3de1bf0-2542-4044-b3e8-6d61c7e478f3"
	 xmlns="http://www.w3.org/2000/svg" xmlns:xlink="http://www.w3.org/1999/xlink" x="0px" y="0px" viewBox="0 0 23.7 27.5"
	 style="enable-background:new 0 0 23.7 27.5;" xml:space="preserve">
<style type="text/css">
	.st0{fill:#FFFFFF;}
</style>
<g>
	<path class="st0" d="M11.1,14.6c-2-3.2-1.4-7.4,1.5-9.9c-3.3-0.4-6.3,2-6.7,5.4c-0.1,0.9,0,1.8,0.3,2.7L4.9,14v1.7H3.2l-0.8,0.8
		v1.7H0.8L0,18.9v3.8h3.8l6.2-6.2c1,0.3,2,0.4,3.1,0.2C12.3,16.1,11.6,15.4,11.1,14.6z"/>
	<path class="st0" d="M18.4,4.5v4.2h-1.6V4.5C13.5,5,11.2,8,11.6,11.3c0.3,2,1.5,3.8,3.4,4.7v1.9l1.2,1.2L15,20.2v1.1l1.2,1.2
		L15,23.7v1.1l2.7,2.6l2.7-2.6V16c3-1.5,4.3-5.1,2.8-8.1C22.2,6,20.5,4.8,18.4,4.5z"/>
	<path class="st0" d="M18.4,4.5V3.9c0-2.1-1.8-3.9-3.9-3.9c-1.8,0-3.4,1.3-3.8,3.1l0.2,0c0.5-0.1,1-0.1,1.5-0.1
		c0.5-1.2,1.8-1.7,3-1.3c0.9,0.3,1.4,1.2,1.4,2.1v0.6C17.4,4.4,17.9,4.4,18.4,4.5L18.4,4.5z"/>
</g>
</svg>
