<svg id="bdebffc2-ba42-4db2-82de-3466a10b2f3e" data-name="Layer 1" xmlns="http://www.w3.org/2000/svg" viewBox="0 0 44.118 56.355"><path d="M39.589,46.372a1,1,0,0,0-1.006,1.006V59.152a2.017,2.017,0,0,1-2.013,2.013h-19.6a2.015,2.015,0,0,1-2.013-2.013v-48.3a2.015,2.015,0,0,1,2.013-2.013h19.6a2.017,2.017,0,0,1,2.013,2.013v20.8a1.006,1.006,0,0,0,2.012,0v-20.8A4.029,4.029,0,0,0,36.57,6.823h-19.6a4.029,4.029,0,0,0-4.026,4.025v48.3a4.029,4.029,0,0,0,4.026,4.025h19.6A4.029,4.029,0,0,0,40.6,59.152V47.378a1,1,0,0,0-1.006-1.006Z" transform="translate(-12.941 -6.823)" style="fill:#fff"/><path d="M54.04,34.668H34.364a9.007,9.007,0,0,0-16.611,4.846C17.8,48.491,29.524,51.9,34.361,44.358H54.04a3.023,3.023,0,0,0,3.019-3.019V37.686a3.023,3.023,0,0,0-3.019-3.019ZM26.77,46.518c-9.284-.352-9.271-13.668,0-14.018a7.027,7.027,0,0,1,5.065,2.168h-4a4.845,4.845,0,1,0,0,9.69h4a7.015,7.015,0,0,1-5.066,2.16ZM55.046,41.34a1,1,0,0,1-1.006,1.006H27.831a2.833,2.833,0,1,1,0-5.665H54.04a1,1,0,0,1,1.006,1.006ZM20.728,12.385H18.756a1.006,1.006,0,1,0,0,2.012h1.972a1.006,1.006,0,1,0,0-2.012Zm7.029,0H25.785a1.006,1.006,0,0,0,0,2.012h1.972a1.006,1.006,0,1,0,0-2.012Zm7.029,0H32.813a1.006,1.006,0,1,0,0,2.012h1.973a1.006,1.006,0,0,0,0-2.012ZM20.728,16.972H18.756a1.006,1.006,0,1,0,0,2.012h1.972a1.006,1.006,0,1,0,0-2.012Zm7.029,0H25.785a1.006,1.006,0,0,0,0,2.012h1.972a1.006,1.006,0,1,0,0-2.012Zm7.029,0H32.813a1.006,1.006,0,0,0,0,2.012h1.973a1.006,1.006,0,0,0,0-2.012ZM20.728,21.558H18.756a1.007,1.007,0,1,0,0,2.013h1.972a1.007,1.007,0,1,0,0-2.013Zm7.029,0H25.785a1.007,1.007,0,0,0,0,2.013h1.972a1.007,1.007,0,1,0,0-2.013Zm7.029,0H32.813a1.007,1.007,0,0,0,0,2.013h1.973a1.007,1.007,0,0,0,0-2.013Zm-7.029,4.055H25.785a1.007,1.007,0,0,0,0,2.013h1.972a1.007,1.007,0,1,0,0-2.013ZM32.3,58.548a2.014,2.014,0,0,0,2.013-2.012v-3.13A2.015,2.015,0,0,0,32.3,51.393H21.243a2.014,2.014,0,0,0-2.012,2.013v3.13a2.014,2.014,0,0,0,2.012,2.012ZM21.243,53.406H32.3l0,3.13H21.242Z" transform="translate(-12.941 -6.823)" style="fill:#fff"/></svg>