<?xml version="1.0" encoding="utf-8"?>
<!-- Generator: Adobe Illustrator 26.0.1, SVG Export Plug-In . SVG Version: 6.00 Build 0)  -->
<svg version="1.1" id="a0466604-80b4-4dc2-8189-47f8225cb6a6"
	 xmlns="http://www.w3.org/2000/svg" xmlns:xlink="http://www.w3.org/1999/xlink" x="0px" y="0px" viewBox="0 0 28.8 27.5"
	 style="enable-background:new 0 0 28.8 27.5;" xml:space="preserve">
<style type="text/css">
	.st0{fill-rule:evenodd;clip-rule:evenodd;fill:#FFFFFF;}
</style>
<g>
	<path class="st0" d="M13.7,27.5h-7c-1,0-1.7-0.8-1.7-1.7v-24c0-1,0.8-1.7,1.7-1.7h7c0.9,0,1.7,0.8,1.7,1.7c0,0,0,0,0,0v1.8
		c-1.8-0.3-3.6-0.3-5.5-0.1c-1.4,0.1-2.6,1-3,2.2c-0.4,1.3,0,2.7,1,3.7c0.7,0.8,1.8,1,2.7,0.6c1.6-0.5,3.2-0.8,4.9-0.7v16.5
		C15.4,26.7,14.6,27.5,13.7,27.5z M10.6,2.5H9.7c-0.2,0-0.4-0.2-0.4-0.4c0,0,0,0,0,0c0-0.2,0.1-0.4,0.3-0.4c0,0,0,0,0,0h0.8
		c0.2,0,0.4,0.2,0.4,0.4c0,0,0,0,0,0C11,2.3,10.8,2.5,10.6,2.5C10.6,2.5,10.6,2.5,10.6,2.5z M10.6,25.8H9.7c-0.2,0-0.4-0.2-0.4-0.4
		c0-0.2,0.2-0.4,0.4-0.4c0,0,0,0,0,0h0.8c0.2,0,0.4,0.2,0.4,0.4c0,0,0,0,0,0C11,25.6,10.8,25.8,10.6,25.8z M11.2,21.9h-2
		c-0.2,0-0.4-0.2-0.4-0.5v-3.7c-0.6-0.5-1-1.2-1-2c0-1.3,1.1-2.4,2.4-2.4c1.3,0,2.4,1.1,2.4,2.4c0,0.8-0.4,1.5-1,2v3.7
		C11.5,21.7,11.4,21.9,11.2,21.9z M9.6,21.1h1.2v-3.5c0-0.2,0.1-0.3,0.2-0.4c0.5-0.3,0.8-0.8,0.8-1.4c0-0.9-0.7-1.6-1.6-1.6
		c-0.9,0-1.6,0.7-1.6,1.6c0,0,0,0,0,0c0,0.6,0.3,1.1,0.8,1.4c0.1,0.1,0.2,0.2,0.2,0.4L9.6,21.1z M4.1,25.2h-2
		c-0.2,0-0.4-0.2-0.4-0.5V2.7c0-0.2,0.2-0.4,0.4-0.4h2V25.2z M3.5,22.4H2.8c-0.2,0-0.4-0.2-0.4-0.4c0-0.2,0.2-0.4,0.4-0.4h0.7
		c0.2,0,0.4,0.2,0.4,0.4c0,0,0,0,0,0C3.9,22.1,3.7,22.3,3.5,22.4z M3.5,23.4H2.8c-0.2,0-0.4-0.2-0.4-0.5c0-0.2,0.2-0.4,0.4-0.4h0.7
		c0.2,0,0.4,0.2,0.4,0.4c0,0,0,0,0,0C3.9,23.2,3.7,23.4,3.5,23.4L3.5,23.4z M3.3,8.1C3,8.1,2.8,7.9,2.8,7.7V4.6
		c0-0.2,0.2-0.4,0.4-0.4c0.2,0,0.4,0.2,0.4,0.4v3.1C3.7,7.9,3.5,8.1,3.3,8.1C3.3,8.1,3.3,8.1,3.3,8.1L3.3,8.1z"/>
	<path class="st0" d="M2.1,27c-0.2,0-0.4-0.2-0.4-0.4V1c0-0.2,0.2-0.4,0.4-0.4c0.2,0,0.4,0.2,0.4,0.4v25.6C2.5,26.8,2.4,27,2.1,27
		C2.1,27,2.1,27,2.1,27z"/>
	<path class="st0" d="M2.1,8.7H0.4C0.2,8.7,0,8.5,0,8.3c0,0,0,0,0,0V6c0-0.2,0.2-0.4,0.4-0.4c0,0,0,0,0,0h1.7c0.2,0,0.4,0.2,0.4,0.4
		c0,0,0,0,0,0v2.3C2.5,8.5,2.4,8.6,2.1,8.7C2.1,8.7,2.1,8.7,2.1,8.7z M2.1,22H0.4C0.2,22,0,21.8,0,21.6c0,0,0,0,0,0v-2.3
		c0-0.2,0.2-0.4,0.4-0.4c0,0,0,0,0,0h1.7c0.2,0,0.4,0.2,0.4,0.4c0,0,0,0,0,0v2.3C2.5,21.8,2.4,22,2.1,22C2.1,22,2.1,22,2.1,22
		L2.1,22z M24.3,9.4c-1.6,0-3.1-0.2-4.7-0.5c-2.9-0.4-5.9-0.9-9.4,0.3C9.6,9.5,8.8,9.3,8.4,8.8c-0.8-0.8-1-1.9-0.7-2.9
		C8,4.9,8.9,4.2,10,4.2c2.2-0.2,4.5-0.1,6.6,0.3c2.9,0.4,6,0.9,9.4-0.3c0.7-0.2,1.4,0,1.9,0.4c0.7,0.8,1,1.9,0.7,2.9
		c-0.4,1-1.3,1.7-2.4,1.7C25.6,9.4,24.9,9.4,24.3,9.4z"/>
</g>
</svg>
