<svg id="ec3f5e36-aecf-42b2-8839-ed817401ef0b" data-name="Layer 1" xmlns="http://www.w3.org/2000/svg" viewBox="0 0 58.57 58.57"><path d="M62.363,48.24h-1.3a10.3,10.3,0,0,0-.406-.985l.917-.917a1.924,1.924,0,0,0,0-2.719L59.558,41.6a1.967,1.967,0,0,0-2.719,0l-.917.917a9.615,9.615,0,0,0-.985-.406v-1.3a1.925,1.925,0,0,0-1.922-1.923H50.5l0-18.634a4.7,4.7,0,0,0-4.691-4.689H39.614V11.931A6.224,6.224,0,0,0,33.4,5.715H22.815A6.224,6.224,0,0,0,16.6,11.931v3.638H10.405a4.7,4.7,0,0,0-4.69,4.689V33.652a.853.853,0,0,0,1.706,0V29.715a7.986,7.986,0,0,0,6.3,3.081H23.756v1.116A2.244,2.244,0,0,0,26,36.154h4.219a2.244,2.244,0,0,0,2.241-2.242V32.8H42.5a7.988,7.988,0,0,0,6.3-3.078v9.756a1.912,1.912,0,0,0-.55,1.341v1.3a10.052,10.052,0,0,0-.985.407l-.917-.917a1.925,1.925,0,0,0-2.719,0L41.6,43.619a1.923,1.923,0,0,0-.261,2.39H10.406a2.985,2.985,0,0,1-2.985-2.98v-5a.853.853,0,0,0-1.706,0v5a4.694,4.694,0,0,0,4.691,4.686H42.33c-.073.175-.154.346-.217.525h-1.3a1.926,1.926,0,0,0-1.923,1.923v2.851a1.925,1.925,0,0,0,1.923,1.923h1.3a10.422,10.422,0,0,0,.406.986l-.916.916a1.923,1.923,0,0,0,0,2.719l2.017,2.017a1.925,1.925,0,0,0,2.718,0l.917-.917a10.045,10.045,0,0,0,.985.406v1.3a1.925,1.925,0,0,0,1.923,1.923h2.852a1.924,1.924,0,0,0,1.922-1.923v-1.3a10.209,10.209,0,0,0,.986-.406l.916.917a1.969,1.969,0,0,0,2.719,0l2.017-2.017a1.923,1.923,0,0,0,0-2.719l-.917-.917a10.045,10.045,0,0,0,.406-.985h1.3a1.925,1.925,0,0,0,1.922-1.923V50.163a1.925,1.925,0,0,0-1.922-1.923ZM18.3,11.931a4.516,4.516,0,0,1,4.511-4.51H33.4a4.515,4.515,0,0,1,4.51,4.51v3.637H18.3ZM30.751,33.912a.534.534,0,0,1-.535.535H26a.535.535,0,0,1-.535-.535V29.693A.535.535,0,0,1,26,29.158h4.219a.535.535,0,0,1,.535.535ZM42.494,31.09H32.457v-1.4a2.244,2.244,0,0,0-2.241-2.241H26a2.243,2.243,0,0,0-2.241,2.241v1.4H13.719a6.3,6.3,0,0,1-6.3-6.3V20.261a2.989,2.989,0,0,1,2.985-2.986h35.4a2.986,2.986,0,0,1,2.979,2.986v4.576A6.3,6.3,0,0,1,42.494,31.09ZM62.579,53.014a.217.217,0,0,1-.216.217H60.439a.853.853,0,0,0-.821.622,8.275,8.275,0,0,1-.748,1.814.853.853,0,0,0,.141,1.021l1.358,1.358a.217.217,0,0,1,0,.306l-2.017,2.016a.217.217,0,0,1-.307,0l-1.357-1.357a.853.853,0,0,0-1.021-.141,8.275,8.275,0,0,1-1.814.748.854.854,0,0,0-.621.822v1.923a.217.217,0,0,1-.217.216H50.163a.217.217,0,0,1-.217-.216V60.44a.854.854,0,0,0-.622-.822,8.267,8.267,0,0,1-1.813-.748.853.853,0,0,0-1.021.141l-1.358,1.357a.217.217,0,0,1-.307,0l-2.016-2.016a.215.215,0,0,1,0-.306l1.358-1.358a.854.854,0,0,0,.14-1.021,8.275,8.275,0,0,1-.748-1.814.853.853,0,0,0-.821-.622H40.815a.217.217,0,0,1-.217-.217V50.163a.217.217,0,0,1,.217-.217h1.923a.853.853,0,0,0,.821-.622,8.3,8.3,0,0,1,.748-1.814.852.852,0,0,0-.14-1.02l-1.358-1.358a.217.217,0,0,1,0-.307l2.016-2.016a.219.219,0,0,1,.307,0l1.358,1.358a.854.854,0,0,0,1.021.14,8.316,8.316,0,0,1,1.813-.748.853.853,0,0,0,.622-.821V40.815a.217.217,0,0,1,.217-.217h2.852a.217.217,0,0,1,.216.217v1.923a.854.854,0,0,0,.622.821,8.345,8.345,0,0,1,1.814.748.851.851,0,0,0,1.021-.14l1.357-1.358a.217.217,0,0,1,.307,0l2.017,2.016a.219.219,0,0,1,0,.307L59.01,46.49a.852.852,0,0,0-.14,1.02,8.3,8.3,0,0,1,.748,1.814.853.853,0,0,0,.821.622h1.924a.218.218,0,0,1,.216.217v2.851Z" transform="translate(-5.715 -5.715)" style="fill:#fff"/><path d="M51.589,45.864a5.725,5.725,0,1,0,5.725,5.725A5.731,5.731,0,0,0,51.589,45.864Zm0,9.744a4.02,4.02,0,1,1,4.019-4.019A4.024,4.024,0,0,1,51.589,55.608Z" transform="translate(-5.715 -5.715)" style="fill:#fff"/></svg>