<svg id="fe3e737a-e1a6-4641-bef7-b89e5f326194" data-name="Layer 1" xmlns="http://www.w3.org/2000/svg" viewBox="0 0 48.876 55.858"><path d="M34.568,33.005a3.983,3.983,0,0,0-2.99,6.623,1,1,0,0,0-.069.359V46.97a2.993,2.993,0,0,0,5.985,0V39.987a.979.979,0,0,0-.036-.249,3.984,3.984,0,0,0-2.89-6.733Zm0,1.995a1.988,1.988,0,0,1,.931,3.749v-.757a1,1,0,0,0-2,0v.684A1.991,1.991,0,0,1,34.568,35ZM34.5,47.967a1,1,0,0,1-1-1V40.836a3.966,3.966,0,0,0,.93.142c.023,0,.044.007.067.007l.023,0,.044,0a3.969,3.969,0,0,0,.931-.114v6.1A1,1,0,0,1,34.5,47.967Z" transform="translate(-10.562 -7.071)" style="fill:#e33134"/><path d="M34.5,54.949a1,1,0,1,0,1,1A1,1,0,0,0,34.5,54.949Z" transform="translate(-10.562 -7.071)" style="fill:#e33134"/><path d="M34.5,13.056a1,1,0,1,0,1,1A1,1,0,0,0,34.5,13.056Z" transform="translate(-10.562 -7.071)" style="fill:#e33134"/><path d="M35.5,7.071h-2a6.99,6.99,0,0,0-6.982,6.982v7.98H13.554a3,3,0,0,0-2.992,2.992v1a3,3,0,0,0,2.992,2.992H26.522V55.947A6.99,6.99,0,0,0,33.5,62.929h2a6.99,6.99,0,0,0,6.982-6.982V14.053A6.99,6.99,0,0,0,35.5,7.071ZM12.557,26.023v-1a1,1,0,0,1,1-1h17.31a3.954,3.954,0,0,0,.016,2.992H13.554A1,1,0,0,1,12.557,26.023Zm20.016-.52a1.995,1.995,0,1,1,1.995,2A2,2,0,0,1,32.573,25.5Zm7.913,30.444A4.992,4.992,0,0,1,35.5,60.934h-2a4.993,4.993,0,0,1-4.988-4.987V29.015h3.99A.989.989,0,0,0,32.651,29a3.992,3.992,0,1,0-.059-6.959.808.808,0,0,0-.086-.009h-3.99v-7.98A4.993,4.993,0,0,1,33.5,9.066h2a4.992,4.992,0,0,1,4.987,4.987Z" transform="translate(-10.562 -7.071)" style="fill:#e33134"/><path d="M58.441,29.015a1,1,0,0,0,1-1v-3.99a1,1,0,0,0-1-1H47.468V8.068a1,1,0,0,0-2,0V61.932a1,1,0,0,0,2,0V54.949h2.993a1,1,0,0,0,.7-.292l3.99-3.99a1,1,0,0,0-.7-1.7H47.468v-3.99H58.441a1,1,0,0,0,1-1v-3.99a1,1,0,0,0-1-1H47.468v-2H58.441a1,1,0,0,0,1-1V32.008a1,1,0,0,0-1-1H47.468v-2Zm-10.973-3.99h9.975v2H47.468ZM52.043,50.96l-1.995,1.995h-2.58V50.96Zm5.4-9.975V42.98H47.468V40.985Zm0-7.98V35H47.468V33.005Z" transform="translate(-10.562 -7.071)" style="fill:#e33134"/></svg>