<?xml version="1.0" encoding="utf-8"?>
<!-- Generator: Adobe Illustrator 26.0.1, SVG Export Plug-In . SVG Version: 6.00 Build 0)  -->
<svg version="1.1" id="a3856fbe-51b7-476f-8652-dc2f18aa67b1"
	 xmlns="http://www.w3.org/2000/svg" xmlns:xlink="http://www.w3.org/1999/xlink" x="0px" y="0px" viewBox="0 0 25.9 28.8"
	 style="enable-background:new 0 0 25.9 28.8;" xml:space="preserve">
<style type="text/css">
	.st0{fill:#FFFFFF;}
</style>
<path class="st0" d="M9.1,19.7c0,0.5-0.3,1-0.7,1.2c-0.1,0.1-0.2,0.2-0.2,0.4v3.1C8.2,24.8,8,25,7.7,25c-0.3,0-0.5-0.2-0.5-0.5
	c0,0,0,0,0,0v-3.1c0-0.2-0.1-0.3-0.2-0.4c-0.4-0.3-0.7-0.7-0.7-1.2c0-0.8,0.6-1.4,1.4-1.4S9.1,18.9,9.1,19.7z M7.7,3.4
	c-2.9,0-5.3,2.4-5.3,5.3s2.4,5.3,5.3,5.3c1.6,0,3.1-0.7,4.1-1.9h3.6v14.4c0,1.3-1.1,2.4-2.4,2.4H2.4c-1.3,0-2.4-1.1-2.4-2.4v-24
	C0,1.1,1.1,0,2.4,0l0,0H13c1.3,0,2.4,1.1,2.4,2.4v2.9h-3.6C10.8,4.1,9.3,3.4,7.7,3.4z M5.3,19.7c0,0.8,0.4,1.5,1,1.9v2.9
	c0,0.8,0.6,1.4,1.4,1.4s1.4-0.6,1.4-1.4v-2.9c1.1-0.8,1.3-2.3,0.5-3.4S7.3,17,6.2,17.8C5.6,18.2,5.3,18.9,5.3,19.7L5.3,19.7z
	 M4.3,8.6c0,1.9,1.5,3.4,3.4,3.4h2.7c-1.9,1.5-4.6,1.2-6.1-0.6C2.8,9.5,3.1,6.8,5,5.3C6.5,4,8.8,4,10.4,5.3H7.7
	C5.8,5.3,4.3,6.8,4.3,8.6z M23.5,6.2H7.7c-1.3,0-2.4,1.1-2.4,2.4S6.4,11,7.7,11h15.9c1.3,0,2.4-1.1,2.4-2.4S24.9,6.2,23.5,6.2
	L23.5,6.2z"/>
</svg>
