<svg id="ffba3af2-f5f8-4494-949e-dfa3fd45535b" data-name="Layer 1" xmlns="http://www.w3.org/2000/svg" viewBox="0 0 59.412 54.693"><path d="M27.044,56.638a2.732,2.732,0,0,1-2.73-2.728V46.385a5.558,5.558,0,1,1,5.457,0V53.91A2.731,2.731,0,0,1,27.044,56.638Zm0-19.259A4.165,4.165,0,0,0,25.3,45.328a.694.694,0,0,1,.4.632v7.95a1.336,1.336,0,0,0,2.671,0V45.96a.7.7,0,0,1,.405-.632,4.165,4.165,0,0,0-1.739-7.949Z" transform="translate(-5.294 -7.653)" style="fill:#e33134;fill-rule:evenodd"/><path d="M42.532,62.347H11.554a6.268,6.268,0,0,1-6.26-6.26V36.537a6.267,6.267,0,0,1,6.26-6.26H42.532a6.26,6.26,0,0,1,4.063,1.5.7.7,0,0,1-.905,1.058,4.865,4.865,0,0,0-3.158-1.171H11.554a4.872,4.872,0,0,0-4.867,4.868v19.55a4.872,4.872,0,0,0,4.867,4.867H42.532A4.872,4.872,0,0,0,47.4,56.087V47.2a.7.7,0,0,1,1.393,0v8.891A6.268,6.268,0,0,1,42.532,62.347Z" transform="translate(-5.294 -7.653)" style="fill:#e33134;fill-rule:evenodd"/><path d="M41.747,31.669H35.066a.7.7,0,0,1-.7-.7V23.054a7.327,7.327,0,1,0-14.654,0v7.919a.7.7,0,0,1-.7.7H12.339a.7.7,0,0,1-.7-.7V23.054a15.418,15.418,0,0,1,15.4-15.4h0a15.418,15.418,0,0,1,15.4,15.4v7.919a.7.7,0,0,1-.7.7Zm-5.984-1.392h5.288V23.054A14.023,14.023,0,0,0,27.044,9.046h0A14.023,14.023,0,0,0,13.035,23.054v7.223h5.288V23.054a8.72,8.72,0,0,1,17.44,0Zm17.52,12.45a2.821,2.821,0,0,1-1.411-.379l-5.753-3.321a2.841,2.841,0,0,1-1.037-3.873l.781-1.354a9.665,9.665,0,0,1,.67-8.327A9.74,9.74,0,0,1,63.4,35.212a9.663,9.663,0,0,1-6.876,4.745l-.781,1.354a2.85,2.85,0,0,1-2.463,1.416Zm1.693-20.733a8.378,8.378,0,0,0-7.237,4.176,8.289,8.289,0,0,0-.463,7.415.7.7,0,0,1-.038.619l-.951,1.647a1.45,1.45,0,0,0,.528,1.97l5.753,3.322a1.434,1.434,0,0,0,.715.191,1.453,1.453,0,0,0,1.256-.719l.95-1.647a.7.7,0,0,1,.517-.343,8.348,8.348,0,0,0-1.03-16.631Z" transform="translate(-5.294 -7.653)" style="fill:#e33134;fill-rule:evenodd"/><path d="M39.21,58.351a.693.693,0,0,1-.671-.518l-1.126-4.24a.693.693,0,0,1,.069-.527l8.586-14.872a.7.7,0,0,1,.424-.324.689.689,0,0,1,.528.07l5.344,3.084a.7.7,0,0,1,.255.952l-1.7,2.942a.691.691,0,0,1-.422.324l-1.618.434.328,1.223a.7.7,0,0,1-.493.853l-1.223.327L47.82,49.3a.7.7,0,0,1-.493.853l-1.223.328.328,1.223a.692.692,0,0,1-.069.528.7.7,0,0,1-.423.324l-1.223.328.327,1.223a.694.694,0,0,1-.492.852l-1.223.328.337,1.256a.7.7,0,0,1-.073.534.707.707,0,0,1-.433.323l-3.784.929a.667.667,0,0,1-.166.02Zm-.378-4.838.876,3.3,2.429-.6L41.8,54.977a.7.7,0,0,1,.492-.853l1.223-.328-.327-1.222a.7.7,0,0,1,.492-.853l1.223-.329L44.58,50.17a.7.7,0,0,1,.492-.853L46.3,48.99l-.327-1.223a.689.689,0,0,1,.07-.529.7.7,0,0,1,.422-.324l1.223-.327-.328-1.224a.7.7,0,0,1,.493-.853l2.011-.539,1.206-2.089-4.138-2.388ZM54.963,35.7A5.353,5.353,0,1,1,59.6,33.02,5.344,5.344,0,0,1,54.963,35.7Zm.01-9.314a3.962,3.962,0,1,0,1.975.531A3.974,3.974,0,0,0,54.973,26.382Z" transform="translate(-5.294 -7.653)" style="fill:#e33134;fill-rule:evenodd"/></svg>